<svg xmlns="http://www.w3.org/2000/svg" width="281" height="64" fill="none"><path fill="#F53003" d="M7.803 7.625H0v47.928h22.462v-7.051H7.803V7.624ZM50.011 27.96c-.995-1.597-2.409-2.852-4.241-3.765-1.832-.913-3.676-1.37-5.53-1.37-2.4 0-4.593.445-6.583 1.335-1.991.89-3.698 2.112-5.123 3.664a16.986 16.986 0 0 0-3.325 5.374A17.468 17.468 0 0 0 24.02 39.6c0 2.283.395 4.428 1.188 6.436a17.05 17.05 0 0 0 3.325 5.34c1.425 1.553 3.132 2.774 5.123 3.663 1.99.89 4.184 1.336 6.583 1.336 1.854 0 3.698-.457 5.53-1.37 1.832-.912 3.246-2.167 4.241-3.766v4.314h7.397V23.646h-7.397v4.314Zm-.678 15.543c-.453 1.233-1.086 2.305-1.9 3.218a9.183 9.183 0 0 1-2.952 2.191c-1.154.548-2.433.822-3.834.822-1.403 0-2.67-.274-3.8-.822a9.284 9.284 0 0 1-2.918-2.19c-.815-.914-1.437-1.986-1.867-3.22a11.737 11.737 0 0 1-.644-3.902c0-1.37.214-2.67.645-3.903.429-1.232 1.051-2.304 1.866-3.218a9.296 9.296 0 0 1 2.917-2.19c1.131-.549 2.398-.822 3.8-.822 1.403 0 2.681.273 3.835.821a9.193 9.193 0 0 1 2.952 2.191c.814.914 1.447 1.986 1.9 3.218a11.25 11.25 0 0 1 .678 3.903c0 1.37-.226 2.67-.678 3.903ZM110.135 27.96c-.996-1.597-2.409-2.852-4.241-3.765-1.832-.913-3.676-1.37-5.531-1.37-2.399 0-4.592.445-6.582 1.335-1.992.89-3.699 2.112-5.124 3.664a16.984 16.984 0 0 0-3.325 5.374 17.468 17.468 0 0 0-1.187 6.402c0 2.283.395 4.428 1.187 6.436.791 2.01 1.9 3.79 3.325 5.34 1.425 1.553 3.133 2.774 5.124 3.663 1.99.89 4.183 1.336 6.582 1.336 1.855 0 3.699-.457 5.531-1.37 1.832-.912 3.245-2.167 4.241-3.766v4.314h7.397V23.646h-7.397v4.314Zm-.678 15.543c-.453 1.233-1.086 2.305-1.9 3.218a9.191 9.191 0 0 1-2.952 2.191c-1.154.548-2.433.822-3.835.822-1.402 0-2.669-.274-3.8-.822a9.285 9.285 0 0 1-2.917-2.19c-.815-.914-1.437-1.986-1.867-3.22a11.737 11.737 0 0 1-.644-3.902c0-1.37.213-2.67.644-3.903.43-1.232 1.052-2.304 1.867-3.218a9.296 9.296 0 0 1 2.917-2.19c1.131-.549 2.398-.822 3.8-.822 1.403 0 2.681.273 3.835.821a9.202 9.202 0 0 1 2.952 2.191c.814.914 1.447 1.986 1.9 3.218.451 1.233.678 2.534.678 3.903 0 1.37-.227 2.67-.678 3.903ZM198.674 7.625h-7.397v47.928h7.397V7.626ZM63.244 55.553h7.397V30.99h12.69v-7.343H63.244v31.907ZM147.187 23.647 137.89 48.08l-9.297-24.433h-7.491l12.14 31.907h9.296l12.14-31.907h-7.491ZM170.81 22.827c-9.057 0-16.227 7.51-16.227 16.774 0 10.24 6.939 16.774 17.175 16.774 5.729 0 9.386-2.21 13.855-7.023l-4.997-3.901c-.003.004-3.772 4.996-9.399 4.996-6.541 0-9.295-5.32-9.295-8.073h24.539c1.289-10.541-5.579-19.547-15.651-19.547Zm-8.868 14c.057-.613.909-8.073 8.81-8.073 7.901 0 8.861 7.459 8.916 8.074h-17.726Z"/><g clip-path="url(#a)"><rect width="64" height="64" x="216.674" fill="#F53003" rx="16"/><rect width="64" height="64" x="216.674" fill="url(#b)" rx="16"/><g filter="url(#c)"><path fill="url(#d)" fill-opacity=".8" d="M254.747 48.808h-5.183v-7.044h-12.196l-4.599 7.062h-6.132l23.216-35.652h4.894v35.634Zm9.964.002h-5.183V13.174h5.183V48.81Zm-24.066-12.08h8.919V23.032l-8.919 13.698Z"/><path stroke="url(#e)" stroke-linejoin="bevel" stroke-width=".5" d="M254.497 13.424v35.134h-4.683v-6.794l-.25-.25h-12.196l-.21.113-4.525 6.95h-5.534l22.889-35.153h4.509Zm9.964 0V48.56h-4.683V13.424h4.683Zm-15.107 9.471-8.919 13.699.21.386h8.919l.25-.25V23.032l-.46-.137Z"/></g></g><defs><radialGradient id="b" cx="0" cy="0" r="1" gradientTransform="matrix(0 44 -44 0 248.674 0)" gradientUnits="userSpaceOnUse"><stop stop-color="#fff" stop-opacity=".5"/><stop offset="1" stop-color="#fff" stop-opacity="0"/></radialGradient><radialGradient id="d" cx="0" cy="0" r="1" gradientTransform="matrix(-10 58.00004 -61.93991 -10.67929 256 25)" gradientUnits="userSpaceOnUse"><stop stop-color="#fff"/><stop offset="1" stop-color="#fff" stop-opacity="0"/></radialGradient><linearGradient id="e" x1="245.674" x2="245.674" y1="13.174" y2="48.826" gradientUnits="userSpaceOnUse"><stop stop-color="#fff" stop-opacity="0"/><stop offset="1" stop-color="#fff" stop-opacity=".3"/></linearGradient><clipPath id="a"><rect width="64" height="64" x="216.674" fill="#fff" rx="16"/></clipPath><filter id="c" width="50.675" height="57.704" x="220.336" y="13.174" color-interpolation-filters="sRGB" filterUnits="userSpaceOnUse"><feFlood flood-opacity="0" result="BackgroundImageFix"/><feColorMatrix in="SourceAlpha" result="hardAlpha" values="0 0 0 0 0 0 0 0 0 0 0 0 0 0 0 0 0 0 127 0"/><feOffset dy="1.575"/><feGaussianBlur stdDeviation=".788"/><feColorMatrix values="0 0 0 0 0 0 0 0 0 0 0 0 0 0 0 0 0 0 0.07 0"/><feBlend in2="BackgroundImageFix" result="effect1_dropShadow_997_2205"/><feColorMatrix in="SourceAlpha" result="hardAlpha" values="0 0 0 0 0 0 0 0 0 0 0 0 0 0 0 0 0 0 127 0"/><feOffset dy="3.15"/><feGaussianBlur stdDeviation="1.575"/><feColorMatrix values="0 0 0 0 0 0 0 0 0 0 0 0 0 0 0 0 0 0 0.06 0"/><feBlend in2="effect1_dropShadow_997_2205" result="effect2_dropShadow_997_2205"/><feColorMatrix in="SourceAlpha" result="hardAlpha" values="0 0 0 0 0 0 0 0 0 0 0 0 0 0 0 0 0 0 127 0"/><feOffset dy="7.876"/><feGaussianBlur stdDeviation="2.363"/><feColorMatrix values="0 0 0 0 0 0 0 0 0 0 0 0 0 0 0 0 0 0 0.04 0"/><feBlend in2="effect2_dropShadow_997_2205" result="effect3_dropShadow_997_2205"/><feColorMatrix in="SourceAlpha" result="hardAlpha" values="0 0 0 0 0 0 0 0 0 0 0 0 0 0 0 0 0 0 127 0"/><feOffset dy="15.751"/><feGaussianBlur stdDeviation="3.15"/><feColorMatrix values="0 0 0 0 0 0 0 0 0 0 0 0 0 0 0 0 0 0 0.01 0"/><feBlend in2="effect3_dropShadow_997_2205" result="effect4_dropShadow_997_2205"/><feBlend in="SourceGraphic" in2="effect4_dropShadow_997_2205" result="shape"/><feColorMatrix in="SourceAlpha" result="hardAlpha" values="0 0 0 0 0 0 0 0 0 0 0 0 0 0 0 0 0 0 127 0"/><feOffset dy="16"/><feGaussianBlur stdDeviation="4"/><feComposite in2="hardAlpha" k2="-1" k3="1" operator="arithmetic"/><feColorMatrix values="0 0 0 0 1 0 0 0 0 1 0 0 0 0 1 0 0 0 0.7 0"/><feBlend in2="shape" result="effect5_innerShadow_997_2205"/></filter></defs></svg>